<svg width="28" height="28" viewBox="0 0 28 28" fill="none" xmlns="http://www.w3.org/2000/svg">
<path fill-rule="evenodd" clip-rule="evenodd" d="M2.33429 0.892551L13.0008 0.95581C14.7421 0.966137 16.2181 2.08824 16.7582 3.64481L23.6514 3.68569C24.6717 3.69168 25.6511 4.08732 26.3893 4.79166C27.1274 5.49599 27.5685 6.45578 27.6224 7.47464L27.6276 7.70934L27.5644 18.3758C27.5584 19.3961 27.1627 20.3755 26.4584 21.1137C25.7541 21.8518 24.7943 22.2929 23.7754 22.3468L23.5407 22.352L18.2075 22.3204C17.3802 22.3155 16.5749 22.0542 15.9022 21.5727C15.2295 21.0911 14.7227 20.4129 14.4514 19.6314L3.55689 19.5668L3.51736 26.2333C3.51526 26.587 3.37277 26.9253 3.12125 27.1738C2.86972 27.4224 2.52975 27.5608 2.17614 27.5588C1.82252 27.5567 1.48422 27.4142 1.23566 27.1626C0.9871 26.9111 0.848638 26.5711 0.850735 26.2175L0.993069 2.21795C0.995166 1.86434 1.13765 1.52604 1.38918 1.27748C1.6407 1.02892 1.98067 0.890454 2.33429 0.892551ZM16.9691 6.31277L16.8979 18.3126C16.896 18.6391 17.014 18.955 17.2296 19.2004C17.4452 19.4457 17.7433 19.6034 18.0674 19.6435L18.2233 19.6538L23.5565 19.6854C23.8831 19.6873 24.199 19.5693 24.4444 19.3537C24.6897 19.1382 24.8474 18.84 24.8875 18.5159L24.8978 18.36L24.961 7.69353C24.9629 7.36695 24.8449 7.05104 24.6293 6.80571C24.4138 6.56039 24.1157 6.4027 23.7916 6.36257L23.6356 6.35231L16.9691 6.31277ZM12.985 3.62243L3.65178 3.56708L3.57271 16.9002L14.2392 16.9634L14.3104 4.96365C14.3122 4.63708 14.1942 4.32116 13.9787 4.07584C13.7631 3.83051 13.465 3.67282 13.1409 3.63269L12.985 3.62243Z" fill="#0DB1AD"/>
</svg>
