<svg width="31" height="35" viewBox="0 0 31 35" fill="none" xmlns="http://www.w3.org/2000/svg">
<path d="M22.5713 12.7024H23.857C25.221 12.7024 26.5291 13.3556 27.4936 14.5183C28.458 15.6811 28.9999 17.2581 28.9999 18.9024C28.9999 20.5467 28.458 22.1237 27.4936 23.2865C26.5291 24.4492 25.221 25.1024 23.857 25.1024H22.5713" stroke="#197BD2" stroke-width="3" stroke-linecap="round" stroke-linejoin="round"/>
<path d="M1.99976 12.7024H22.5712V26.6524C22.5712 28.2967 22.0293 29.8737 21.0649 31.0365C20.1004 32.1992 18.7923 32.8524 17.4283 32.8524H7.14261C5.77864 32.8524 4.47054 32.1992 3.50606 31.0365C2.54159 29.8737 1.99976 28.2967 1.99976 26.6524V12.7024Z" stroke="#197BD2" stroke-width="3" stroke-linecap="round" stroke-linejoin="round"/>
<path d="M7.14258 1.85242V6.50242" stroke="#197BD2" stroke-width="3" stroke-linecap="round" stroke-linejoin="round"/>
<path d="M12.2854 1.85242V6.50242" stroke="#197BD2" stroke-width="3" stroke-linecap="round" stroke-linejoin="round"/>
<path d="M17.4282 1.85242V6.50242" stroke="#197BD2" stroke-width="3" stroke-linecap="round" stroke-linejoin="round"/>
</svg>
