<svg width="22" height="28" viewBox="0 0 22 28" fill="none" xmlns="http://www.w3.org/2000/svg">
<path fill-rule="evenodd" clip-rule="evenodd" d="M9.89033 19.6221L1.89047 19.5746C1.65587 19.5733 1.42577 19.5101 1.2234 19.3914C1.02104 19.2727 0.853575 19.1027 0.737921 18.8986C0.622267 18.6945 0.562517 18.4635 0.564705 18.2289C0.566893 17.9943 0.630941 17.7644 0.750381 17.5625L10.1784 1.61811C10.8707 0.446193 12.6678 0.94486 12.6597 2.30484L12.6202 8.97138L20.6201 9.01883C20.8547 9.02015 21.0848 9.08335 21.2871 9.20205C21.4895 9.32074 21.657 9.49073 21.7726 9.69484C21.8883 9.89896 21.948 10.13 21.9458 10.3646C21.9436 10.5992 21.8796 10.829 21.7602 11.031L12.3321 26.9753C11.6398 28.1459 9.84272 27.6486 9.85079 26.2886L9.89033 19.6221ZM9.96387 7.22093L4.22758 16.9218L11.2395 16.9633C11.5931 16.9654 11.9314 17.1079 12.1799 17.3594C12.4285 17.611 12.567 17.9509 12.5649 18.3046L12.5467 21.3725L18.283 11.6717L11.2711 11.6301C10.9175 11.628 10.5792 11.4855 10.3306 11.234C10.082 10.9825 9.94358 10.6425 9.94568 10.2889L9.96387 7.22093Z" fill="#7042C9"/>
</svg>
