<svg width="28" height="25" viewBox="0 0 28 25" fill="none" xmlns="http://www.w3.org/2000/svg">
<path fill-rule="evenodd" clip-rule="evenodd" d="M9.34073 2.96509C7.83966 2.94775 6.38938 3.50819 5.29004 4.53043C4.21737 5.54008 3.62138 6.88457 3.61289 8.31655C3.60441 9.74719 4.1844 11.0987 5.24503 12.121L14.206 20.7503L23.2687 12.2279C24.3414 11.2182 24.9374 9.87371 24.9459 8.44306C24.9482 7.73087 24.8046 7.02574 24.5239 6.37119C24.2431 5.71664 23.8313 5.12655 23.3137 4.63732C21.0983 2.50414 17.4717 2.48263 15.2312 4.58938L14.2966 5.46919L13.3726 4.57836C12.2854 3.54316 10.8419 2.96556 9.34073 2.96509V2.96509ZM14.1844 24.3902L3.3753 13.9792C1.79628 12.4618 0.933557 10.4447 0.946264 8.30206C0.958972 6.15944 1.84556 4.15266 3.44249 2.6501C6.41916 -0.150961 11.0672 -0.376733 14.3175 1.94925C17.5951 -0.338018 22.2402 -0.0571315 25.1835 2.77771C26.7625 4.2991 27.6252 6.31625 27.6125 8.45888C27.5998 10.6015 26.7132 12.6083 25.1162 14.1095L14.1844 24.3902Z" fill="#D2416E"/>
</svg>
